<svg width="28" height="28" viewBox="0 0 28 28" fill="none" xmlns="http://www.w3.org/2000/svg">
<path fill-rule="evenodd" clip-rule="evenodd" d="M22.8995 25.5494C23.8986 25.5494 24.7085 24.7395 24.7085 23.7403V10.8392C24.7085 10.2343 24.4062 9.66949 23.9029 9.33397L14.8577 3.30383C14.2501 2.89872 13.4584 2.89872 12.8508 3.30383L3.80557 9.33397C3.30229 9.66949 3 10.2343 3 10.8392V23.7403C3 24.7395 3.80994 25.5494 4.80904 25.5494H8.42712C9.42623 25.5494 10.2362 24.7395 10.2362 23.7403V21.3283C10.2362 20.3292 11.0461 19.5192 12.0452 19.5192H15.6633C16.6624 19.5192 17.4723 20.3292 17.4723 21.3283V23.7403C17.4723 24.7395 18.2823 25.5494 19.2814 25.5494H22.8995Z" fill="white"/>
</svg>
